<svg xmlns="http://www.w3.org/2000/svg"
    xmlns:xlink="http://www.w3.org/1999/xlink" viewBox="0 0 360 360">
    <style>
        .small { font: 40px verdana; alignment-baseline:hanging; }
        .medium { font: 60px verdana; alignment-baseline:hanging; }
        .large { font: 80px verdana; alignment-baseline:hanging; }
        .small-italic { font: 40px verdana; font-style:italic; alignment-baseline:hanging; }
        .small-sans { font: 44px monospace; alignment-baseline:hanging; }
        .small-condensed { font: 42px arial; font-stretch:condensed; alignment-baseline:hanging; }
    </style>
    <defs>
        <!--128x128-->
        <g id="eye" transform="scale(1.2,1.2) translate(0,0)">
            <path fill="#bae6fa" d="M63.797 38.701c-12.142.273-24.5 4.01-38.479 11.752-2.538 2.933-3.848 6.112-3.57 9.34.94 10.97 19.725 18.315 41.956 16.408 22.235-1.908 39.495-12.346 38.554-23.313-.177-2.058-.982-3.99-2.32-5.755-12.72-5.7-24.335-8.699-36.14-8.432Z"/>
            <path fill="#fff" d="M65.369 38.684c-9.877-.018-19.85 2.232-30.689 7.062-.455 1.74-.7 3.55-.7 5.415 0 13.01 11.748 23.559 26.24 23.559 14.49 0 26.239-10.548 26.239-23.559 0-3.506-.862-6.83-2.393-9.82-6.32-1.722-12.49-2.645-18.697-2.657Z" opacity=".35"/>
            <path fill="#fff" d="M60.22 37.763c-4.697-.287-12.79 2.163-19.537 4.607a20.031 20.031 0 0 0-1.594 7.846c0 11.4 10.335 20.642 21.268 20.642 10.86 0 20.47-9.258 21.268-20.64.26-3.709-1.017-7.2-2.787-10.214-6.997-1.23-14.42-1.984-18.619-2.24"/>
            <path fill="#353333" d="M48.17 48.72c.576-1.276 1.448-1.9 2.293-2.969-.093-.253-.3-1.082-.3-1.37a2.322 2.322 0 0 1 3.178-2.155 16.913 16.913 0 0 1 13.986-3.07c.466.105.92.231 1.367.371-5.025-.697-10.688 1.083-14.54 4.192.117.277.443 1.07.443 1.391 0 1.282-.829 1.593-2.11 1.593-.293 0-.57-.056-.828-.153-.87 1.168-1.937 3.394-2.459 4.786 2.13 1.906 4.056 2.595 6.563 3.534-.005-.12.086-.23.086-.352 0-3.866 3.403-7.007 7.27-7.007a6.993 6.993 0 0 1 6.892 5.824c1.73-1.1 3.4-1.943 4.674-3.573-.296-.362-.618-1.39-.618-1.895 0-1.162.944-2.105 2.109-2.105.164 0 .322.023.477.06a18.418 18.418 0 0 0 1.445-4.192c-6.045-4.474-17.74-3.863-17.74-3.863s-9.308-.486-15.608 2.584c.42 3.038 1.632 5.925 3.42 8.37"/>
            <path fill="#353333" d="M77.062 46.977c.429.384.662.723.844 1.052.567 1.016-.568 1.947-1.73 1.947a2.12 2.12 0 0 1-.347-.035c-1.311 2.047-3.606 4.674-5.646 5.996 3.128.513 6.077 1.764 8.424 3.7 1.708-3.063 3.02-7.483 3.02-11.237 0-2.86-1.264-4.955-3.167-6.492-.101 1.531-.92 3.674-1.398 5.07m-25.384 19.39c1.041-2.877 3.605-5.107 6.03-7.068-.356-.486-.887-1.688-1.108-2.258a16.965 16.965 0 0 1-7.605-4.812c-.013.065-.03.13-.048.194a15.34 15.34 0 0 0-.26 5.102 3.047 3.047 0 0 1 2.486 2.998c0 .885-.777 2.166-1.378 2.725.655 1.413 1.1 2.095 1.883 3.12"/>
            <path fill="#353333" d="M51.495 68.785c-1.244-1.237-2.103-3.702-2.91-5.25a2.93 2.93 0 0 1-.463.04c-1.686 0-3.452-1.416-3.052-3.053.222-.906.846-1.498 1.865-1.992-.233-1.877-.296-4.575.14-6.525.125-.557.39-.82.566-1.35-1.86-2.723-3.063-6.296-3.063-9.839 0-.13.008-.257.01-.385-3.143 1.576-5.5 4.06-5.5 7.967 0 8.648 4.98 17.132 12.39 20.456.006-.023.01-.047.017-.07M69.717 56.83a6.997 6.997 0 0 1-6.599 4.68 6.95 6.95 0 0 1-4.318-1.5c-2.454 1.91-4.68 5.267-5.81 8.179.506.545.86.996 1.43 1.48 1.716.448 4.08 0 5.937 0 7.473 0 14.09-3.325 17.883-9.153-2.523-1.747-5.498-3.409-8.523-3.686"/>
            <path fill="#1185b0" d="M47.978 49.73a16.908 16.908 0 0 1 2.143-3.524 2.323 2.323 0 0 1 2.174-3.135c.301 0 .59.06.855.165a16.922 16.922 0 0 1 15.353-2.698c-5.026-.696-10.217.843-14.07 3.952a2.322 2.322 0 0 1-2.966 3.07 15.664 15.664 0 0 0-2.103 3.852c1.83 1.971 4.074 3.53 6.582 4.468-.006-.12-.017-.237-.017-.36a6.997 6.997 0 0 1 6.997-6.999c3.466 0 6.335 2.52 6.895 5.824a18.132 18.132 0 0 0 4.537-4.142 2.086 2.086 0 0 1-.481-1.324c0-1.164.943-2.107 2.107-2.107.164 0 .322.024.477.06a18.403 18.403 0 0 0 1.445-4.19c-6.043-4.477-17.74-3.866-17.74-3.866s-9.308-.486-15.608 2.586c.421 3.037 1.632 5.926 3.42 8.368"/>
            <path fill="#1185b0" d="M77.388 47.321c.429.384.703.937.703 1.558a2.108 2.108 0 0 1-2.107 2.107c-.118 0-.233-.017-.347-.036a17.043 17.043 0 0 1-5.087 5.118 17.025 17.025 0 0 1 8.198 3.684 21.158 21.158 0 0 0 2.687-10.342c0-2.86-1.263-4.954-3.167-6.49-.1 1.53-.4 3.006-.88 4.401M52 67.06a16.978 16.978 0 0 1 5.278-7.42 6.971 6.971 0 0 1-.87-1.586 16.965 16.965 0 0 1-7.603-4.812c-.015.065-.033.128-.048.192a15.295 15.295 0 0 0-.263 5.102A3.05 3.05 0 0 1 50 63.773a18.331 18.331 0 0 0 2 3.287"/>
            <path fill="#1185b0" d="M51.486 68.749a16.96 16.96 0 0 1-3.09-4.202 3 3 0 0 1-.466.039 3.053 3.053 0 0 1-3.052-3.053c0-1.209.705-2.25 1.724-2.744a16.884 16.884 0 0 1 .283-5.773 17.13 17.13 0 0 1 .45-1.633 16.885 16.885 0 0 1-2.948-9.557c0-.129.007-.257.01-.386-3.144 1.576-5.5 4.061-5.5 7.97 0 8.647 5.164 16.085 12.574 19.41l.015-.071m18.039-10.91a6.997 6.997 0 0 1-6.599 4.68 6.96 6.96 0 0 1-4.318-1.498c-2.454 1.911-4.305 4.515-5.436 7.426a18.67 18.67 0 0 0 1.62 1.547 21.38 21.38 0 0 0 5.373.685c7.473 0 14.04-3.858 17.834-9.686-2.522-1.747-5.448-2.876-8.474-3.154"/>
            <path fill="#fff" d="m60.95 49.56-3.663-6.55 1.982 6.953-5.942-4.32 4.655 5.848-7.377-2.713 5.821 4.307-7.464.23 7.632 1.97-7.64 1.653 7.541.545-6.36 4.073 6.55-2.374-4.545 5.756 5.741-4.632-2.066 7.722 4.432-6.284-.622 7.423 2.517-6.73 2.143 7.072.52-7.093 3.18 6.052-1.878-6.92 5.82 4.508-3.758-5.75 6.386 2.49-4.883-4.8 6.548.514-6.45-2.474 6.467-1.542-6.49-.332 5.28-4.037-5.992 2.148 4.073-5.645-5.626 3.74 1.967-6.608-3.864 5.447-.087-6.884-2.544 6.131-2.118-6.203zm0 0"/>
            <path fill="#353333" d="M.93 68.41C20.982 48.354 37 42.164 51.535 39.337c1.925-.374 2.288-4.577 2.288-4.577s.268 3.096 1.615 3.5c1.345.403 3.096-4.847 3.096-4.847s-1.615 4.711 0 4.982c1.615.268 4.575-4.578 4.575-4.578s-1.21 4.173-.402 4.442c.807.27 4.844-6.057 4.844-6.057s-2.421 4.173-.134 4.577c2.29.405 5.628-2.848 5.628-2.848s-2.625 2.975-1.455 3.387c4.98 1.75 9.01-4.723 9.01-4.723s-.934 2.838-3.356 5.934c5.248 1.347 9.147-6.56 9.147-6.56l-3.9 7.907c2.02 1.076 10.096-8.21 10.096-8.21s-4.173 7.267-6.595 8.746c1.345 1.08 6.19-3.228 6.19-3.228s-3.902 4.843-2.421 5.113c2.153 1.75 10.093-9.018 10.093-9.018s-3.094 6.326-7.672 11.306c3.825 1.913 13.326-10.363 13.326-10.363s-.27 3.902-7.133 10.095c5.113-.673 11.71-10.364 11.71-10.364s-2.424 7.268-8.212 12.381c5.022-.52 13.055-12.92 13.055-12.92s-3.096 8.613-9.42 13.594c6.998 1.55 17.093-8.884 17.093-8.884s-3.971 7.404-9.152 10.433c5.788 2.22 13.728-6.932 13.728-6.932s-7.94 12.248-20.593 11.71c-4.15-.177-16.706-12.595-43.609-11.576C27.445 43.106 19.906 58.18.93 68.41" opacity=".35"/>
            <path fill="#353333" d="M93.409 30.142s-8.075 9.287-10.095 8.21l3.899-7.908s-3.9 7.907-9.146 6.562c2.42-3.096 3.355-5.935 3.355-5.935s-4.03 6.474-9.01 4.723c-1.17-.41 1.455-3.385 1.455-3.385s-3.34 3.251-5.627 2.847c-2.288-.403.134-4.576.134-4.576s-4.037 6.327-4.847 6.057c-.806-.268.405-4.442.405-4.442s-2.96 4.846-4.575 4.577c-1.615-.27 0-4.98 0-4.98s-1.75 5.25-3.096 4.845c-1.347-.403-1.615-3.499-1.615-3.499s-.364 4.203-2.288 4.575c-14.536 2.828-30.553 9.02-50.608 29.073 18.977-10.23 26.514-25.304 62.047-26.649 26.903-1.02 39.458 11.397 43.609 11.574 12.653.54 20.594-11.71 20.594-11.71s-7.941 9.152-13.73 6.931c5.183-3.027 9.153-10.43 9.153-10.43s-10.095 10.43-17.092 8.882c6.324-4.979 9.419-13.59 9.419-13.59s-8.033 12.397-13.055 12.92c5.788-5.115 8.21-12.385 8.21-12.385s-6.595 9.692-11.71 10.366c6.866-6.192 7.136-10.095 7.136-10.095s-9.5 12.276-13.325 10.363c4.573-4.98 7.67-11.306 7.67-11.306s-7.94 10.768-10.094 9.018c-1.481-.27 2.424-5.115 2.424-5.115s-4.845 4.307-6.192 3.23c2.422-1.48 6.594-8.748 6.594-8.748zm12.916 22.638c-1.354-.092-2.548.414-3.158 2.075C96.907 66.767 83.785 73.43 68.44 75.65c-15.344 2.22-26.65-1.006-35.937-3.623C20.29 68.583 10.6 74.709 0 69.392c2.452 1.94 5.25 3.836 13.325 3.86 2.738.01 11.507-.43 13.122.983 1.615 1.414-5.45 8.076-5.45 8.076s11.955-10.108 13.122-6.662c.726 2.145-3.432 7.875-3.432 7.875s4.17-5.658 7.27-6.865c2.126-.83 3.92-.73 5.45 1.414 1.01 1.412-4.845 8.277-4.845 8.277s7.872-7.671 9.286-7.267c1.414.402 0 7.267 0 7.267s2.896-6.956 4.44-7.47c2.12-.706-4.845 16.15-4.845 16.15s8.507-15.595 10.095-15.946c2.726-.606 4.544 10.9 4.544 10.9s-1.328-10.052.1-10.7c9.04-4.09 3.838 17.363 3.838 17.363s5.912-14.558 2.28-17.787c9.588 6.358 8.42 17.787 8.42 17.787s2.52-5.442-4.552-18.823c3.838-.2 9.596 9.94 9.596 9.94s-6.257-11.104-2.017-11.305c8.424-.4 9.287 14.737 9.287 14.737s2.523-2.12-4.24-16.96c4.306-2.758 14.738 13.73 14.738 13.73s-9.623-16.084-8.075-17.161c1.546-1.077 7.202 5.116 7.202 5.116s-4.307-5.922-3.165-6.528c1.144-.607 12.586 11.777 12.586 11.777s-10.096-12.115-8.346-13.596c1.035-.877 4.035.745 6.325 2.216-3.21-2.296-7.821-5.889-6.325-6.666 3.096-1.607 11.913 3.844 11.913 3.844s-5.317-4.374-4.443-5.45c.875-1.078 11.305 6.864 11.305 6.864s-9.22-7.27-9.69-9.086c-.472-1.816 7.27.606 7.27.606s-8.548-3.97-8.682-5.114c-.136-1.146 5.652 1.278 5.652 1.278s-3.754-3.086-6.734-3.286zm-.266 17.01a109.786 109.786 0 0 0 2.827 1.956s-1.25-.942-2.827-1.956z"/>
            <path fill="#353333" d="M.404 70.603c10.598 5.317 20.29-.807 32.504 2.634 9.286 2.617 20.592 5.846 35.935 3.623 15.345-2.218 28.467-8.882 34.728-20.794 1.95-5.317 9.892 1.21 9.892 1.21s-5.788-2.42-5.654-1.277c.136 1.144 8.68 5.113 8.68 5.113s-7.737-2.42-7.266-.605c.472 1.818 9.689 9.086 9.689 9.086s-10.428-7.942-11.304-6.866c-.875 1.077 4.44 5.454 4.44 5.454s-8.814-5.454-11.91-3.845c-2.226 1.155 9.152 8.623 9.152 8.623s-7.403-5.653-9.152-4.172c-1.75 1.48 8.346 13.593 8.346 13.593S97.04 69.997 95.898 70.603c-1.146.605 3.163 6.527 3.163 6.527s-5.654-6.19-7.2-5.113c-1.548 1.077 8.076 17.159 8.076 17.159s-10.432-16.487-14.74-13.728c6.765 14.838 4.24 16.96 4.24 16.96s-.862-15.14-9.286-14.74c-4.24.202 2.018 11.307 2.018 11.307s-5.76-10.142-9.596-9.94c7.07 13.38 4.55 18.82 4.55 18.82S78.29 86.432 68.7 80.072c3.634 3.23-2.28 17.787-2.28 17.787s5.204-21.453-3.836-17.363c-1.429.646-.1 10.7-.1 10.7s-1.819-11.51-4.542-10.901c-1.59.352-10.095 15.948-10.095 15.948s6.965-16.858 4.845-16.15c-1.544.515-4.44 7.47-4.44 7.47s1.411-6.864 0-7.268c-1.415-.405-9.289 7.268-9.289 7.268s5.857-6.864 4.845-8.278c-1.53-2.142-3.323-2.243-5.45-1.414-3.097 1.207-7.268 6.865-7.268 6.865s4.158-5.73 3.432-7.875C33.356 73.415 21.4 83.525 21.4 83.525s7.065-6.664 5.45-8.076c-1.615-1.414-10.385-.976-13.122-.983C5.653 74.44 2.855 72.545.403 70.604" opacity=".35"/>
        </g>
        <!-- 256x348 -->
        <g id="gopher">
            <path d="M3.686 188.165c.498 10.26 10.758 5.479 15.34 2.291 4.383-3.088 5.678-.498 6.076-6.475.299-3.984.697-7.869.498-11.853-6.674-.598-13.846.996-19.325 4.98-2.888 1.992-8.068 8.567-2.59 11.057M208.187 314.272c7.869 4.881 22.313 19.624 10.459 26.796-11.356 10.36-17.73-11.456-27.692-14.444 4.283-5.877 9.662-11.256 17.233-12.352zM67.337 330.907c-9.264 1.395-14.444 9.762-22.213 14.046-7.272 4.283-10.061-1.395-10.659-2.59-1.095-.498-.996.498-2.789-1.295-6.773-10.659 6.973-18.428 14.145-23.708 9.961-1.992 16.237 6.674 21.516 13.547zM251.916 186.87c-.498 10.26-10.758 5.479-15.34 2.291-4.383-3.088-5.678-.498-6.076-6.475-.3-3.984-.698-7.869-.498-11.853 6.673-.598 13.845.996 19.324 4.98 2.79 1.992 8.069 8.567 2.59 11.057" fill="#F6D2A2"/>
            <path d="M224.722 61.759c35.561-12.551 7.77-61.26-23.21-39.745-20.32-17.432-48.31-20.62-77.696-20.62C95.03 3.687 67.636 8.966 48.511 25.7 17.63 5.777-10.858 53.59 25.4 65.644c-10.16 39.445 1.394 79.688-.2 119.831-1.494 36.06-10.957 84.37 9.065 116.744 17.034 27.692 53.69 37.554 83.873 38.65 38.549 1.394 85.266-8.069 103.993-45.423 17.93-35.561 12.95-79.888 10.659-118.238-2.291-38.749 1.992-78.095-8.069-115.45z" fill="#69D7E2"/>
            <path d="M254.605 180.794c-.996-2.092-2.888-4.483-4.681-5.778-4.582-3.287-10.46-5.08-16.536-5.279-.199-6.176-.398-12.95-.398-21.516v-7.77c-.1-24.504-.399-35.262-1.793-48.71-1.096-10.558-2.79-20.32-5.18-29.484 8.069-3.088 13.348-8.168 15.44-14.743 1.992-6.076.996-12.949-2.39-19.025-3.487-5.977-9.065-10.46-15.54-12.252-6.973-1.893-14.543-.498-21.815 4.382-6.475-5.478-13.945-9.662-22.313-12.85C164.557 2.292 147.325.2 123.916.2v.996l-.1-.996c-25.002 1.992-43.53 5.877-58.87 13.348-6.176 2.988-11.654 6.574-16.435 10.758-7.372-4.582-15.042-5.678-22.114-3.486-6.574 1.992-12.252 6.674-15.639 12.75-3.387 6.076-4.184 13.049-1.893 19.026 2.291 5.976 7.57 10.658 15.44 13.547-2.49 10.06-3.785 20.719-3.984 32.473-.2 11.455.298 20.62 2.091 41.338 1.295 15.44 1.793 22.512 1.993 31.079-6.774-.299-13.547 1.494-18.628 5.18-1.793 1.295-3.785 3.586-4.681 5.777-1.295 2.79-.797 5.28 1.793 6.774.398 4.781 3.088 6.972 7.172 6.574 2.988-.299 6.574-1.893 9.662-4.084a11.208 11.208 0 0 1 2.092-1.195c.299-.1.498-.2.797-.3 0 0 .597-.198.797-.298.298-.1.597-.2.796-.399-.199 4.682-.597 9.563-1.494 20.72-.996 12.55-1.494 19.424-1.693 27.094-.897 28.488 2.49 49.207 12.65 65.643 3.188 5.18 7.073 9.762 11.655 13.946-.897.597-4.682 3.387-5.877 4.283-4.184 3.188-7.072 5.877-8.766 8.865-2.191 3.885-2.191 7.77.299 11.854l.1.1.1.1c1.095 1.095 1.693 1.394 2.49 1.394H33.966c.1.2.2.299.3.498.298.498.597.896.896 1.295 2.49 2.889 5.976 3.586 10.658.797 2.49-1.295 4.283-2.79 8.068-5.977l.2-.2c6.076-5.179 9.064-7.071 13.547-7.769l1.594-.299c.597.3 1.195.499 1.892.797 14.145 5.678 30.58 8.766 47.216 9.364 21.516.797 42.235-1.893 59.766-8.268 4.682-1.693 9.065-3.686 13.249-5.877 2.59.996 4.78 3.088 8.965 7.969.199.2.199.2.298.398.2.2.2.3.3.399.198.299.497.498.696.797 3.288 3.884 5.48 5.777 7.97 6.873 3.286 1.394 6.474.697 9.761-2.291 5.778-3.586 6.176-9.164 2.39-15.54-2.689-4.482-7.37-9.164-11.753-12.152 5.18-5.08 9.662-11.156 13.148-18.03 9.563-19.125 13.249-41.438 13.05-70.126-.1-10.16-.499-19.025-1.594-35.96v-.497c.498.199.996.498 1.494.896 3.088 2.092 6.674 3.785 9.662 4.084 4.084.399 6.774-1.793 7.172-6.574 2.49-1.594 2.988-4.084 1.693-6.873zM222.93 18.328c5.977 1.594 11.157 5.778 14.344 11.356 3.188 5.578 4.084 11.854 2.291 17.432-1.892 5.877-6.674 10.559-14.145 13.348a162.04 162.04 0 0 0-5.279-15.739c2.889-2.49 4.283-5.578 1.992-9.96-2.29-4.384-6.275-4.882-10.36-3.587-2.59-3.387-5.478-6.375-8.466-9.164 6.574-4.184 13.348-5.379 19.623-3.686zM10.56 51.997c-2.092-5.38-1.395-11.754 1.793-17.332 3.187-5.579 8.367-9.961 14.543-11.754 6.375-1.893 13.248-.997 20.022 2.988a65.541 65.541 0 0 0-10.36 11.854c-5.18-2.69-10.459-3.188-13.447 2.29-3.088 5.878.498 9.563 5.578 12.352-.697 1.694-1.395 3.487-1.992 5.28-.698 2.191-1.395 4.482-1.992 6.773-7.272-2.789-12.053-7.072-14.145-12.451zm12.053 135.77c-.1 0-.698.199-.698.298-.298.1-.597.2-.896.399-.797.299-1.594.797-2.39 1.394-2.79 1.993-6.177 3.487-8.767 3.686-2.988.299-4.681-.996-4.98-4.582 2.092-.697 2.988-1.195 3.785-2.39l-1.594-1.196c-.597.797-1.195 1.096-2.988 1.693-.1 0-.1 0-.2.1-1.593-.897-1.892-2.291-.995-4.283.797-1.793 2.59-3.885 4.084-4.98 4.781-3.487 11.156-5.18 17.531-4.782 0 2.49.1 4.98 0 7.37 0 .3 0 .499-.1.798-.099 1.394-.099 1.992-.199 2.69-.298 2.888-.498 3.286-1.593 3.785zm30.082 150.312l-.2.2c-3.685 3.187-5.478 4.482-7.769 5.777-3.785 2.291-6.375 1.793-8.168-.398-.299-.3-.498-.698-.697-.997-.1-.1-.2-.298-.299-.398v-.1c.2-1.793.897-3.088 2.69-5.877.1-.1.1-.1.1-.199 1.095-1.594 1.593-2.49 2.091-3.586l-1.793-.797c-.398.897-.896 1.694-1.893 3.287-.1.1-.1.1-.1.2-1.792 2.59-2.59 4.183-2.988 5.976h-.1H33.27c-.2-.1-.498-.299-.896-.697-3.885-6.176-.797-11.455 7.968-18.03 1.096-.796 4.782-3.386 5.778-4.183.2 0 .398-.1.598-.2 5.378 4.583 11.654 8.567 18.627 11.854 0 .1.1.2.199.3-4.084.995-7.272 3.087-12.85 7.868zm167.247-10.857c3.088 5.18 2.988 9.363-.897 12.252-.298-.598-.498-1.295-.896-2.291 0-.1 0-.1-.1-.2-1.394-3.785-2.29-5.378-3.984-7.171l-1.395 1.394c1.494 1.395 2.192 2.889 3.586 6.375 0 .1 0 .1.1.2.498 1.294.797 2.091 1.096 2.789-2.59 2.191-4.881 2.59-7.272 1.494-2.092-.897-4.084-2.79-7.272-6.375-.199-.2-.398-.498-.597-.797-.1-.1-.2-.2-.3-.399-.198-.199-.198-.199-.298-.398-3.686-4.283-5.877-6.574-8.268-7.87 5.579-3.187 10.56-6.773 15.042-10.957 4.183 3.088 8.865 7.67 11.455 11.954zm1.394-32.274c-8.566 17.233-23.707 29.385-44.028 36.756-17.332 6.276-37.852 8.866-59.069 8.069-36.557-1.295-68.233-14.045-83.075-38.151-9.961-16.038-13.249-36.458-12.352-64.548.299-7.67.697-14.543 1.693-27.094 1.096-14.145 1.395-18.229 1.694-24.604.199-4.582.199-9.264.1-14.244-.2-8.766-.698-15.739-1.993-31.378-1.793-20.719-2.291-29.784-2.092-41.14.3-14.94 2.291-28.09 6.475-40.54C35.46 37.851 47.913 24.204 65.843 15.34 80.884 7.97 99.113 4.184 123.916 2.191c23.21 0 40.143 2.092 54.786 7.471 17.531 6.475 30.58 17.83 39.545 35.263 5.778 14.144 9.165 29.385 10.958 46.916 1.394 13.348 1.693 24.106 1.793 48.51v7.77c.1 12.053.298 20.52.797 28.987.199 3.287.298 4.682.796 12.551 1.096 16.934 1.495 25.7 1.594 35.86.2 28.588-3.387 50.602-12.85 69.429zm30.481-109.074c-.1 0-.199-.1-.298-.1-1.793-.597-2.391-.996-2.989-1.693l-1.594 1.195c.897 1.196 1.793 1.694 3.786 2.39-.399 3.587-2.092 4.882-4.98 4.583-2.59-.2-5.978-1.793-8.767-3.686-.797-.597-1.593-.996-2.39-1.394-.1 0-.2-.1-.3-.1-.398-5.478-.398-6.873-.597-9.762l-.299-5.379c5.579.1 11.057 1.793 15.24 4.881 1.495 1.096 3.288 3.188 4.085 4.98.996 1.694.797 3.188-.897 4.085z"/>
            <path d="M138.918 104.123c.1 5.08 1.096 10.658.199 16.037-1.395 2.59-3.984 2.89-6.275 3.885-3.188-.498-5.878-2.59-7.172-5.578-.797-6.076.199-11.854.498-17.93 0-.2 3.785.1 7.172 1.096 2.888.896 5.578 2.39 5.578 2.49zM110.728 104.521c-2.79 10.56 3.686 27.792 14.344 13.647-.797-5.977.1-11.754.398-17.631.1-.498-14.642 3.287-14.742 3.984z" fill="#FFF"/>
            <path d="M140.113 108.805c-.2-2.989-.299-4.184-.299-5.678v-.697l-.697-.2-12.551-3.884v-.698l-1.295.3h-.1v.099l-14.144 3.586-.498.1-.2.497c-2.191 5.28-1.693 13.249 1.096 18.13 3.188 5.578 8.367 5.677 13.647-.698a10.192 10.192 0 0 0 7.47 5.38h.3l.298-.1c.399-.2.797-.3 1.495-.598.1 0 .1 0 .199-.1 2.888-.996 4.084-1.793 5.08-3.685l.1-.1v-.199c.298-1.793.398-3.686.398-5.777 0-1.495-.1-2.89-.299-5.678zm-15.938-3.686c-.1 1.793-.199 2.49-.298 3.486-.2 3.686-.2 6.475.1 9.264-4.683 5.977-8.368 5.977-10.858 1.494-2.391-4.183-2.89-11.256-1.096-15.937l12.55-3.188c-.099 1.295-.198 2.59-.398 4.881zm13.946 14.743c-.697 1.195-1.594 1.793-3.985 2.59-.1 0-.1 0-.199.099-.597.2-.996.398-1.295.498-2.69-.498-4.98-2.291-6.076-4.781-.299-2.69-.299-5.479-.1-9.164.1-.997.1-1.694.3-3.487.198-2.29.298-3.685.298-4.98l10.858 3.287c0 1.295.1 2.49.299 5.08.199 2.69.298 4.084.298 5.678 0 1.892-.1 3.586-.398 5.18z"/>
            <g transform="translate(48.476 21.976)">
                <path d="M2.291 38.749c9.164 35.66 66.241 26.496 64.05-9.264C63.75-13.348-6.475-5.08 2.29 38.749" fill="#FFF"/>
                <path d="M67.337 29.385c-.598-10.36-5.18-18.428-12.75-23.508C47.813 1.295 38.848-.498 29.983.597 21.118 1.794 12.949 5.778 7.57 12.054 1.594 19.026-.697 28.19 1.395 38.749l.896-.2-.896.2c9.363 36.656 68.133 27.791 65.942-9.364zM3.187 38.55c-1.992-10.06.2-18.627 5.778-25.102 5.08-5.877 12.75-9.761 21.217-10.857 8.467-1.096 16.934.598 23.31 4.98 7.071 4.782 11.355 12.253 11.952 22.114 2.092 34.764-53.391 43.132-62.256 8.865z"/>
                <g transform="translate(17,12)">
                    <ellipse cx="18.03" cy="32.872" rx="9.662" ry="10.459"/>
                    <ellipse fill="#FFF" cx="22.412" cy="35.262" rx="2.291" ry="2.689"/>
                </g>
            </g>
            <g transform="translate(129.618 18.098)">
                <path d="M1.195 35.96C8.268 76.9 75.206 66.042 65.544 24.803 56.878-12.252-1.196-1.992 1.195 35.96" fill="#FFF"/>
                <path d="M66.44 24.604C57.575-13.547-2.19-3.088.2 36.059v.1c3.286 19.324 20.52 29.186 39.545 25.998C48.41 60.663 56.18 56.48 61.26 50.304c5.578-6.874 7.57-15.739 5.18-25.7zm-6.673 24.504c-4.782 5.778-12.053 9.762-20.321 11.157-18.03 2.988-34.167-6.276-37.354-24.405C-.1-.996 56.28-10.858 64.647 25.002c2.192 9.463.399 17.731-4.88 24.106z"/>
                <g transform="translate(14,12)">
                    <ellipse cx="17.631" cy="34.167" rx="9.463" ry="10.459"/>
                    <ellipse fill="#FFF" cx="22.014" cy="36.557" rx="2.191" ry="2.689"/>
                </g>
            </g>
            <g>
                <path d="M112.785 83.002c-7.87.697-14.245 9.961-10.16 17.332 5.378 9.762 17.431-.896 24.902.1 8.666.2 15.739 9.164 22.612 1.594 7.67-8.368-3.287-16.536-11.954-20.122l-25.4 1.096z" fill="#F6D2A2"/>
                <path d="M151.135 89.676c-2.69-3.387-7.371-6.475-12.452-8.567l-.199-.1h-.199l-25.5.997c-8.866.797-15.24 11.057-10.958 18.826 1.694 2.989 3.985 4.483 7.073 4.682 2.29.1 4.682-.398 8.367-1.693.299-.1.697-.2 1.195-.399 4.981-1.693 6.973-2.191 8.965-1.892h.1c2.39 0 4.383.697 8.168 2.191 4.184 1.693 5.479 2.192 7.57 2.39 2.89.2 5.38-.796 7.67-3.286 3.885-4.284 3.686-8.866.2-13.149zm-1.694 11.754c-1.892 2.092-3.785 2.79-6.076 2.69-1.793-.1-2.988-.598-6.973-2.192-3.984-1.693-6.175-2.29-8.765-2.39-2.49-.3-4.582.199-9.862 1.992-.498.199-.896.299-1.195.398-7.272 2.49-10.758 2.291-13.149-2.092-3.586-6.474 1.893-15.24 9.364-15.937l25.201-.997c4.782 1.993 9.065 4.881 11.555 7.97 2.988 3.585 3.088 7.171-.1 10.558z" fill="#231F20"/>
                <path d="M140.178 78.719c-3.088-11.356-28.987-9.662-28.39 3.885 1.295 10.06 31.378 7.37 28.39-3.885z"/>
            </g>
    </g>
</defs>
<rect x="0" y="0" width="360" height="360" fill="white"/>
<use x="60" y="6" xlink:href="#gopher"/>
<use x="110" y="140" xlink:href="#eye"/>
</svg>